# 3ds Max Wavefront OBJ Exporter v0.99 - (c)2007 guruware
# File Created: 06.05.2022 15:06:18

mtllib visionObj.mtl

#
# object Cone001
#

v  33.9612 0.0000 12.1914
v  -32.4018 0.0000 12.1914
v  -33.5723 0.0000 -0.7530
v  35.1317 0.0000 -0.7530
v  33.9612 0.0000 -13.6973
v  27.3249 18.2171 -11.1084
v  28.2613 18.2171 -0.7530
v  30.5294 0.0000 -25.7595
v  24.5795 18.2171 -20.7582
v  25.0702 0.0000 -36.1176
v  20.2121 18.2171 -29.0447
v  17.9557 0.0000 -44.0656
v  14.5205 18.2171 -35.4031
v  9.6707 0.0000 -49.0619
v  7.8925 18.2171 -39.4001
v  0.7797 0.0000 -50.7661
v  0.7797 18.2171 -40.7635
v  -8.1112 0.0000 -49.0619
v  -6.3330 18.2171 -39.4001
v  -16.3963 0.0000 -44.0656
v  -12.9611 18.2171 -35.4031
v  -23.5108 0.0000 -36.1176
v  -18.6527 18.2171 -29.0447
v  -28.9700 0.0000 -25.7595
v  -23.0200 18.2171 -20.7582
v  -32.4018 0.0000 -13.6973
v  -25.7655 18.2171 -11.1085
v  -26.7019 18.2171 -0.7530
v  -25.7655 18.2171 9.6025
v  -28.9700 0.0000 24.2536
v  -23.0201 18.2171 19.2523
v  -23.5108 0.0000 34.6116
v  -18.6527 18.2171 27.5387
v  -16.3963 0.0000 42.5597
v  -12.9611 18.2171 33.8971
v  -8.1113 0.0000 47.5560
v  -6.3331 18.2171 37.8942
v  0.7797 0.0000 49.2602
v  0.7797 18.2171 39.2575
v  9.6706 0.0000 47.5560
v  7.8925 18.2171 37.8942
v  17.9557 0.0000 42.5597
v  14.5205 18.2171 33.8972
v  25.0702 0.0000 34.6117
v  20.2121 18.2171 27.5388
v  30.5294 0.0000 24.2536
v  24.5795 18.2171 19.2523
v  27.3249 18.2171 9.6025
v  20.6886 36.4342 -8.5196
v  21.3909 36.4342 -0.7530
v  18.6295 36.4342 -15.7569
v  15.3540 36.4342 -21.9717
v  11.0853 36.4342 -26.7405
v  6.1143 36.4342 -29.7383
v  0.7797 36.4342 -30.7608
v  -4.5549 36.4342 -29.7383
v  -9.5259 36.4342 -26.7405
v  -13.7946 36.4342 -21.9717
v  -17.0701 36.4342 -15.7569
v  -19.1292 36.4342 -8.5196
v  -19.8315 36.4342 -0.7530
v  -19.1292 36.4342 7.0136
v  -17.0701 36.4342 14.2510
v  -13.7946 36.4342 20.4658
v  -9.5259 36.4342 25.2346
v  -4.5549 36.4342 28.2324
v  0.7797 36.4342 29.2549
v  6.1143 36.4342 28.2324
v  11.0853 36.4342 25.2346
v  15.3540 36.4342 20.4658
v  18.6295 36.4342 14.2510
v  20.6886 36.4342 7.0137
v  14.0523 54.6512 -5.9307
v  14.5205 54.6512 -0.7530
v  12.6796 54.6512 -10.7556
v  10.4959 54.6512 -14.8988
v  7.6501 54.6512 -18.0780
v  4.3361 54.6512 -20.0765
v  0.7797 54.6512 -20.7582
v  -2.7767 54.6512 -20.0765
v  -6.0907 54.6512 -18.0780
v  -8.9365 54.6512 -14.8988
v  -11.1202 54.6512 -10.7556
v  -12.4929 54.6512 -5.9307
v  -12.9611 54.6512 -0.7530
v  -12.4929 54.6512 4.4248
v  -11.1202 54.6512 9.2497
v  -8.9365 54.6512 13.3929
v  -6.0907 54.6512 16.5721
v  -2.7767 54.6512 18.5706
v  0.7797 54.6512 19.2523
v  4.3361 54.6512 18.5706
v  7.6501 54.6512 16.5721
v  10.4959 54.6512 13.3929
v  12.6796 54.6512 9.2497
v  14.0523 54.6512 4.4248
v  7.4160 72.8683 -3.3418
v  7.6501 72.8683 -0.7530
v  6.7296 72.8683 -5.7543
v  5.6378 72.8683 -7.8259
v  4.2149 72.8683 -9.4155
v  2.5579 72.8683 -10.4148
v  0.7797 72.8683 -10.7556
v  -0.9985 72.8683 -10.4148
v  -2.6555 72.8683 -9.4155
v  -4.0784 72.8683 -7.8259
v  -5.1702 72.8683 -5.7543
v  -5.8566 72.8683 -3.3418
v  -6.0907 72.8683 -0.7530
v  -5.8566 72.8683 1.8359
v  -5.1702 72.8683 4.2483
v  -4.0784 72.8683 6.3200
v  -2.6555 72.8683 7.9096
v  -0.9985 72.8683 8.9088
v  0.7797 72.8683 9.2497
v  2.5579 72.8683 8.9088
v  4.2149 72.8683 7.9096
v  5.6378 72.8683 6.3200
v  6.7296 72.8683 4.2484
v  7.4160 72.8683 1.8359
v  0.7797 91.0854 -0.7530
# 121 vertices

vn 0.7758 -0.5958 0.2079
vn -0.7758 -0.5958 0.2079
vn -0.8032 -0.5958 -0.0000
vn 0.8032 -0.5958 0.0000
vn 0.7758 -0.5958 -0.2079
vn 0.9429 0.2171 -0.2526
vn 0.9761 0.2171 0.0000
vn 0.6956 -0.5958 -0.4016
vn 0.8454 0.2171 -0.4881
vn 0.5679 -0.5958 -0.5679
vn 0.6902 0.2171 -0.6902
vn 0.4016 -0.5958 -0.6956
vn 0.4881 0.2171 -0.8454
vn 0.2079 -0.5958 -0.7758
vn 0.2526 0.2171 -0.9429
vn 0.0000 -0.5958 -0.8032
vn 0.0000 0.2171 -0.9761
vn -0.2079 -0.5958 -0.7758
vn -0.2526 0.2171 -0.9429
vn -0.4016 -0.5958 -0.6956
vn -0.4881 0.2171 -0.8454
vn -0.5679 -0.5958 -0.5679
vn -0.6902 0.2171 -0.6902
vn -0.6956 -0.5958 -0.4016
vn -0.8454 0.2171 -0.4881
vn -0.7758 -0.5958 -0.2079
vn -0.9429 0.2171 -0.2526
vn -0.9761 0.2171 -0.0000
vn -0.9429 0.2171 0.2526
vn -0.6956 -0.5958 0.4016
vn -0.8454 0.2171 0.4881
vn -0.5679 -0.5958 0.5679
vn -0.6902 0.2171 0.6902
vn -0.4016 -0.5958 0.6956
vn -0.4881 0.2171 0.8454
vn -0.2079 -0.5958 0.7758
vn -0.2526 0.2171 0.9429
vn -0.0000 -0.5958 0.8032
vn -0.0000 0.2171 0.9761
vn 0.2079 -0.5958 0.7758
vn 0.2526 0.2171 0.9429
vn 0.4016 -0.5958 0.6956
vn 0.4881 0.2171 0.8454
vn 0.5679 -0.5958 0.5679
vn 0.6902 0.2171 0.6902
vn 0.6956 -0.5958 0.4016
vn 0.8454 0.2171 0.4881
vn 0.9429 0.2171 0.2526
vn 0.9761 0.2171 -0.0000
vn 1.0000 0.0000 -0.0000
# 50 vertex normals

vt 0.2787 0.0000 -0.1316
vt 0.4625 0.0000 -0.3860
vt 0.5952 0.0000 -0.1317
vt 0.7500 0.0000 1.0000
vt 0.7917 0.0000 1.0000
vt 0.7917 0.2000 0.8000
vt 0.7500 0.2000 0.8000
vt 0.8333 0.0000 1.0000
vt 0.8333 0.2000 0.8000
vt 0.8750 0.0000 1.0000
vt 0.8750 0.2000 0.8000
vt 0.9167 0.0000 1.0000
vt 0.9167 0.2000 0.8000
vt 0.9583 0.0000 1.0000
vt 0.9583 0.2000 0.8000
vt 1.0000 0.0000 1.0000
vt 1.0000 0.2000 0.8000
vt 0.0000 0.0000 1.0000
vt 0.0417 0.0000 1.0000
vt 0.0417 0.2000 0.8000
vt -0.0000 0.2000 0.8000
vt 0.0833 0.0000 1.0000
vt 0.0833 0.2000 0.8000
vt 0.1250 0.0000 1.0000
vt 0.1250 0.2000 0.8000
vt 0.1667 0.0000 1.0000
vt 0.1667 0.2000 0.8000
vt 0.2083 0.0000 1.0000
vt 0.2083 0.2000 0.8000
vt 0.2500 0.0000 1.0000
vt 0.2500 0.2000 0.8000
vt 0.2917 0.0000 1.0000
vt 0.2917 0.2000 0.8000
vt 0.3333 0.0000 1.0000
vt 0.3333 0.2000 0.8000
vt 0.3750 0.0000 1.0000
vt 0.3750 0.2000 0.8000
vt 0.4167 0.0000 1.0000
vt 0.4167 0.2000 0.8000
vt 0.4583 0.0000 1.0000
vt 0.4583 0.2000 0.8000
vt 0.5000 0.0000 1.0000
vt 0.5000 0.2000 0.8000
vt 0.5417 0.0000 1.0000
vt 0.5417 0.2000 0.8000
vt 0.5833 0.0000 1.0000
vt 0.5833 0.2000 0.8000
vt 0.6250 0.0000 1.0000
vt 0.6250 0.2000 0.8000
vt 0.6667 0.0000 1.0000
vt 0.6667 0.2000 0.8000
vt 0.7083 0.0000 1.0000
vt 0.7083 0.2000 0.8000
vt 0.7917 0.4000 0.6000
vt 0.7500 0.4000 0.6000
vt 0.8333 0.4000 0.6000
vt 0.8750 0.4000 0.6000
vt 0.9167 0.4000 0.6000
vt 0.9583 0.4000 0.6000
vt 1.0000 0.4000 0.6000
vt 0.0417 0.4000 0.6000
vt -0.0000 0.4000 0.6000
vt 0.0833 0.4000 0.6000
vt 0.1250 0.4000 0.6000
vt 0.1667 0.4000 0.6000
vt 0.2083 0.4000 0.6000
vt 0.2500 0.4000 0.6000
vt 0.2917 0.4000 0.6000
vt 0.3333 0.4000 0.6000
vt 0.3750 0.4000 0.6000
vt 0.4167 0.4000 0.6000
vt 0.4583 0.4000 0.6000
vt 0.5000 0.4000 0.6000
vt 0.5417 0.4000 0.6000
vt 0.5833 0.4000 0.6000
vt 0.6250 0.4000 0.6000
vt 0.6667 0.4000 0.6000
vt 0.7083 0.4000 0.6000
vt 0.7917 0.6000 0.4000
vt 0.7500 0.6000 0.4000
vt 0.8333 0.6000 0.4000
vt 0.8750 0.6000 0.4000
vt 0.9167 0.6000 0.4000
vt 0.9583 0.6000 0.4000
vt 1.0000 0.6000 0.4000
vt 0.0417 0.6000 0.4000
vt -0.0000 0.6000 0.4000
vt 0.0833 0.6000 0.4000
vt 0.1250 0.6000 0.4000
vt 0.1667 0.6000 0.4000
vt 0.2083 0.6000 0.4000
vt 0.2500 0.6000 0.4000
vt 0.2917 0.6000 0.4000
vt 0.3333 0.6000 0.4000
vt 0.3750 0.6000 0.4000
vt 0.4167 0.6000 0.4000
vt 0.4583 0.6000 0.4000
vt 0.5000 0.6000 0.4000
vt 0.5417 0.6000 0.4000
vt 0.5833 0.6000 0.4000
vt 0.6250 0.6000 0.4000
vt 0.6667 0.6000 0.4000
vt 0.7083 0.6000 0.4000
vt 0.7917 0.8000 0.2000
vt 0.7500 0.8000 0.2000
vt 0.8333 0.8000 0.2000
vt 0.8750 0.8000 0.2000
vt 0.9167 0.8000 0.2000
vt 0.9583 0.8000 0.2000
vt 1.0000 0.8000 0.2000
vt 0.0417 0.8000 0.2000
vt -0.0000 0.8000 0.2000
vt 0.0833 0.8000 0.2000
vt 0.1250 0.8000 0.2000
vt 0.1667 0.8000 0.2000
vt 0.2083 0.8000 0.2000
vt 0.2500 0.8000 0.2000
vt 0.2917 0.8000 0.2000
vt 0.3333 0.8000 0.2000
vt 0.3750 0.8000 0.2000
vt 0.4167 0.8000 0.2000
vt 0.4583 0.8000 0.2000
vt 0.5000 0.8000 0.2000
vt 0.5417 0.8000 0.2000
vt 0.5833 0.8000 0.2000
vt 0.6250 0.8000 0.2000
vt 0.6667 0.8000 0.2000
vt 0.7083 0.8000 0.2000
vt 0.5000 1.0000 0.0000
vt -0.0076 0.0000 -0.9318
vt 0.0000 0.0000 -1.0000
vt 0.0417 0.0000 -1.0000
vt 0.0194 0.0000 -0.8002
vt 0.1146 0.0000 -0.9318
vt 0.0792 0.0000 -0.6140
vt 0.2137 0.0000 -0.8002
vt 0.1676 0.0000 -0.3860
vt 0.3324 0.0000 -0.6140
vt 0.7213 0.0000 0.1317
vt 0.8324 0.0000 0.3860
vt 0.9208 0.0000 0.6140
vt 0.9806 0.0000 0.8002
vt 1.0076 0.0000 0.9319
# 143 texture coords

o Cone001
g Cone001
usemtl wire_085028177
s 1
f 1/1/1 2/2/2 3/3/3 4/4/4 
s 8
f 4/4/4 5/5/5 6/6/6 7/7/7 
f 5/5/5 8/8/8 9/9/9 6/6/6 
f 8/8/8 10/10/10 11/11/11 9/9/9 
f 10/10/10 12/12/12 13/13/13 11/11/11 
f 12/12/12 14/14/14 15/15/15 13/13/13 
f 14/14/14 16/16/16 17/17/17 15/15/15 
f 16/18/16 18/19/18 19/20/19 17/21/17 
f 18/19/18 20/22/20 21/23/21 19/20/19 
f 20/22/20 22/24/22 23/25/23 21/23/21 
f 22/24/22 24/26/24 25/27/25 23/25/23 
f 24/26/24 26/28/26 27/29/27 25/27/25 
f 26/28/26 3/30/3 28/31/28 27/29/27 
f 3/30/3 2/32/2 29/33/29 28/31/28 
f 2/32/2 30/34/30 31/35/31 29/33/29 
f 30/34/30 32/36/32 33/37/33 31/35/31 
f 32/36/32 34/38/34 35/39/35 33/37/33 
f 34/38/34 36/40/36 37/41/37 35/39/35 
f 36/40/36 38/42/38 39/43/39 37/41/37 
f 38/42/38 40/44/40 41/45/41 39/43/39 
f 40/44/40 42/46/42 43/47/43 41/45/41 
f 42/46/42 44/48/44 45/49/45 43/47/43 
f 44/48/44 46/50/46 47/51/47 45/49/45 
f 46/50/46 1/52/1 48/53/48 47/51/47 
f 1/52/1 4/4/4 7/7/7 48/53/48 
f 7/7/7 6/6/6 49/54/6 50/55/49 
f 6/6/6 9/9/9 51/56/9 49/54/6 
f 9/9/9 11/11/11 52/57/11 51/56/9 
f 11/11/11 13/13/13 53/58/13 52/57/11 
f 13/13/13 15/15/15 54/59/15 53/58/13 
f 15/15/15 17/17/17 55/60/17 54/59/15 
f 17/21/17 19/20/19 56/61/19 55/62/17 
f 19/20/19 21/23/21 57/63/21 56/61/19 
f 21/23/21 23/25/23 58/64/23 57/63/21 
f 23/25/23 25/27/25 59/65/25 58/64/23 
f 25/27/25 27/29/27 60/66/27 59/65/25 
f 27/29/27 28/31/28 61/67/28 60/66/27 
f 28/31/28 29/33/29 62/68/29 61/67/28 
f 29/33/29 31/35/31 63/69/31 62/68/29 
f 31/35/31 33/37/33 64/70/33 63/69/31 
f 33/37/33 35/39/35 65/71/35 64/70/33 
f 35/39/35 37/41/37 66/72/37 65/71/35 
f 37/41/37 39/43/39 67/73/39 66/72/37 
f 39/43/39 41/45/41 68/74/41 67/73/39 
f 41/45/41 43/47/43 69/75/43 68/74/41 
f 43/47/43 45/49/45 70/76/45 69/75/43 
f 45/49/45 47/51/47 71/77/47 70/76/45 
f 47/51/47 48/53/48 72/78/48 71/77/47 
f 48/53/48 7/7/7 50/55/49 72/78/48 
f 50/55/49 49/54/6 73/79/6 74/80/7 
f 49/54/6 51/56/9 75/81/9 73/79/6 
f 51/56/9 52/57/11 76/82/11 75/81/9 
f 52/57/11 53/58/13 77/83/13 76/82/11 
f 53/58/13 54/59/15 78/84/15 77/83/13 
f 54/59/15 55/60/17 79/85/17 78/84/15 
f 55/62/17 56/61/19 80/86/19 79/87/17 
f 56/61/19 57/63/21 81/88/21 80/86/19 
f 57/63/21 58/64/23 82/89/23 81/88/21 
f 58/64/23 59/65/25 83/90/25 82/89/23 
f 59/65/25 60/66/27 84/91/27 83/90/25 
f 60/66/27 61/67/28 85/92/28 84/91/27 
f 61/67/28 62/68/29 86/93/29 85/92/28 
f 62/68/29 63/69/31 87/94/31 86/93/29 
f 63/69/31 64/70/33 88/95/33 87/94/31 
f 64/70/33 65/71/35 89/96/35 88/95/33 
f 65/71/35 66/72/37 90/97/37 89/96/35 
f 66/72/37 67/73/39 91/98/39 90/97/37 
f 67/73/39 68/74/41 92/99/41 91/98/39 
f 68/74/41 69/75/43 93/100/43 92/99/41 
f 69/75/43 70/76/45 94/101/45 93/100/43 
f 70/76/45 71/77/47 95/102/47 94/101/45 
f 71/77/47 72/78/48 96/103/48 95/102/47 
f 72/78/48 50/55/49 74/80/7 96/103/48 
f 74/80/7 73/79/6 97/104/6 98/105/7 
f 73/79/6 75/81/9 99/106/9 97/104/6 
f 75/81/9 76/82/11 100/107/11 99/106/9 
f 76/82/11 77/83/13 101/108/13 100/107/11 
f 77/83/13 78/84/15 102/109/15 101/108/13 
f 78/84/15 79/85/17 103/110/17 102/109/15 
f 79/87/17 80/86/19 104/111/19 103/112/17 
f 80/86/19 81/88/21 105/113/21 104/111/19 
f 81/88/21 82/89/23 106/114/23 105/113/21 
f 82/89/23 83/90/25 107/115/25 106/114/23 
f 83/90/25 84/91/27 108/116/27 107/115/25 
f 84/91/27 85/92/28 109/117/28 108/116/27 
f 85/92/28 86/93/29 110/118/29 109/117/28 
f 86/93/29 87/94/31 111/119/31 110/118/29 
f 87/94/31 88/95/33 112/120/33 111/119/31 
f 88/95/33 89/96/35 113/121/35 112/120/33 
f 89/96/35 90/97/37 114/122/37 113/121/35 
f 90/97/37 91/98/39 115/123/39 114/122/37 
f 91/98/39 92/99/41 116/124/41 115/123/39 
f 92/99/41 93/100/43 117/125/43 116/124/41 
f 93/100/43 94/101/45 118/126/45 117/125/43 
f 94/101/45 95/102/47 119/127/47 118/126/45 
f 95/102/47 96/103/48 120/128/48 119/127/47 
f 96/103/48 74/80/7 98/105/7 120/128/48 
f 98/105/7 97/104/6 121/129/50 121/129/50 
f 97/104/6 99/106/9 121/129/50 121/129/50 
f 99/106/9 100/107/11 121/129/50 121/129/50 
f 100/107/11 101/108/13 121/129/50 121/129/50 
f 101/108/13 102/109/15 121/129/50 121/129/50 
f 102/109/15 103/110/17 121/129/50 121/129/50 
f 103/112/17 104/111/19 121/129/50 121/129/50 
f 104/111/19 105/113/21 121/129/50 121/129/50 
f 105/113/21 106/114/23 121/129/50 121/129/50 
f 106/114/23 107/115/25 121/129/50 121/129/50 
f 107/115/25 108/116/27 121/129/50 121/129/50 
f 108/116/27 109/117/28 121/129/50 121/129/50 
f 109/117/28 110/118/29 121/129/50 121/129/50 
f 110/118/29 111/119/31 121/129/50 121/129/50 
f 111/119/31 112/120/33 121/129/50 121/129/50 
f 112/120/33 113/121/35 121/129/50 121/129/50 
f 113/121/35 114/122/37 121/129/50 121/129/50 
f 114/122/37 115/123/39 121/129/50 121/129/50 
f 115/123/39 116/124/41 121/129/50 121/129/50 
f 116/124/41 117/125/43 121/129/50 121/129/50 
f 117/125/43 118/126/45 121/129/50 121/129/50 
f 118/126/45 119/127/47 121/129/50 121/129/50 
f 119/127/47 120/128/48 121/129/50 121/129/50 
f 120/128/48 98/105/7 121/129/50 121/129/50 
s 1
f 121/129/50 121/129/50 121/129/50 121/129/50 121/129/50 121/129/50 121/129/50 121/129/50 121/129/50 121/129/50 121/129/50 121/129/50 121/129/50 121/129/50 121/129/50 121/129/50 121/129/50 121/129/50 121/129/50 121/129/50 121/129/50 121/129/50 121/129/50 121/129/50 
f 40/130/40 38/131/38 36/132/36 
f 42/133/42 40/130/40 36/132/36 34/134/34 
f 44/135/44 42/133/42 34/134/34 32/136/32 
f 46/137/46 44/135/44 32/136/32 30/138/30 
f 1/1/1 46/137/46 30/138/30 2/2/2 
f 3/3/3 26/139/26 5/5/5 4/4/4 
f 26/139/26 24/140/24 8/8/8 5/5/5 
f 24/140/24 22/141/22 10/10/10 8/8/8 
f 22/141/22 20/142/20 12/12/12 10/10/10 
f 20/142/20 18/143/18 14/14/14 12/12/12 
f 18/143/18 16/16/16 14/14/14 
# 131 polygons - 2 triangles

